# xmcd CD database file
#
# Track frame offsets:
#	150
#	15177
#	28091
#	41671
#	54419
#	67344
#	80212
#	93002
#	105719
#	111636
#	125021
#	138256
#	154861
#	170467
#	187192
#	202550
#	216042
#	229904
#	247578
#
# Disc length: 3580 seconds
#
# Revision: 0
# Processed by: cddbd v1.5.2PL0 Copyright (c) Steve Scherf et al.
# Submitted via: CDex 1.70beta2
#
DISCID=040dfa13
DTITLE=Forrest City Joe - The Complete Collection
DYEAR=1959
DGENRE=Blues
TTITLE0=Memory Of Sonny Boy
TTITLE1=Special Delivery Man
TTITLE2=Shady Lane Woman
TTITLE3=A Woman On Every Street
TTITLE4=Sawdust Bottom
TTITLE5=Ash Street Boogie
TTITLE6=Mean Mistreatin' Woman
TTITLE7=Lonesome Day Blues
TTITLE8=Forrest City Jump
TTITLE9=I Feel Good
TTITLE10=Stop Breakin' Down
TTITLE11=I'm Gonna Find My Baby
TTITLE12=You Don't Leave me That Way
TTITLE13=I Don't Wanna Go
TTITLE14=She Used To Be Beautiful
TTITLE15=Cut That Out
TTITLE16=Drink On, Little Girl
TTITLE17=Levee Camp Reminiscence
TTITLE18=Train Time
EXTD=YEAR: 1959
EXTT0=
EXTT1=
EXTT2=
EXTT3=
EXTT4=
EXTT5=
EXTT6=
EXTT7=
EXTT8=
EXTT9=
EXTT10=
EXTT11=
EXTT12=
EXTT13=
EXTT14=
EXTT15=
EXTT16=
EXTT17=
EXTT18=
PLAYORDER=
